<svg xmlns="http://www.w3.org/2000/svg" version="1.1" xmlns:xlink="http://www.w3.org/1999/xlink" xmlns:svgjs="http://svgjs.dev/svgjs" width="1920" height="1080" preserveAspectRatio="none" viewBox="0 0 1920 1080"><g mask="url(&quot;#SvgjsMask1082&quot;)" fill="none"><rect width="1920" height="1080" x="0" y="0" fill="rgba(255, 247, 243, 1)"></rect><path d="M0,856.995C171.382,866.234,366.402,884.954,497.651,774.361C627.76,664.729,608.653,463.559,659.58,301.22C703.239,162.048,802.107,31.914,775.556,-111.508C749.258,-253.562,617.073,-343.574,520.346,-450.882C425.675,-555.91,349.677,-689.225,215.258,-733.1C79.6,-777.379,-71.268,-744.677,-201.581,-686.521C-322.411,-632.597,-396.383,-518.504,-485.255,-420.476C-576.385,-319.957,-682.827,-232.404,-728.958,-104.808C-781.556,40.675,-810.437,201.245,-763.306,348.59C-713.682,503.729,-599.889,632.21,-464.325,722.503C-327.441,813.676,-164.23,848.142,0,856.995" fill="#ffe6da"></path><path d="M1920 1886.798C2065.809 1859.1779999999999 2155.567 1719.9679999999998 2287.013 1651.083 2436.41 1572.79 2663.0370000000003 1604.3899999999999 2742.64 1455.687 2821.246 1308.846 2704.1440000000002 1132.311 2648.815 975.212 2602.915 844.886 2518.33 741.163 2448.9139999999998 621.693 2360.557 469.624 2347.469 244.73800000000006 2185.105 177.13599999999997 2025.258 110.582 1852.251 238.95799999999997 1693.017 306.96500000000003 1550.798 367.70500000000004 1412.728 435.846 1309.575 551.064 1205.288 667.549 1114.893 806.8489999999999 1105.746 962.928 1096.87 1114.385 1203.606 1240.516 1260.9389999999999 1380.983 1321.21 1528.647 1324.721 1712.295 1451.2440000000001 1809.399 1579.474 1907.813 1761.182 1916.882 1920 1886.798" fill="#ffffff"></path></g><defs><mask id="SvgjsMask1082"><rect width="1920" height="1080" fill="#ffffff"></rect></mask></defs></svg>