<?xml version="1.0" encoding="UTF-8"?>
<svg id="Capa_2" data-name="Capa 2" xmlns="http://www.w3.org/2000/svg" viewBox="0 0 505.65 218.97">
  <defs>
    <style>
      .cls-1 {
        fill: #29422c;
      }
    </style>
  </defs>
  <g id="Capa_5" data-name="Capa 5">
    <g>
      <path class="cls-1" d="m179.52,190.36l16.42-11.18c3.68-2.27,6.62-5.2,8.81-8.8,2.2-3.59,3.3-7.48,3.3-11.66s-1.26-8.48-3.77-12.34c-2.51-3.86-5.85-6.95-10.03-9.27-4.17-2.32-8.73-3.48-13.66-3.48h-39.57v84.96h11.84v-50.18c3.86,8.55,7.47,15.5,10.83,20.86,3.37,5.36,7.52,10.75,12.45,16.16,4.93,5.41,10.41,9.8,16.42,13.16h20.05c-4.58-2.36-9.82-5.95-15.75-10.77-5.92-4.82-11.71-10.64-17.36-17.46Zm-6.46-8.73c-7.9-11.54-13.77-24.09-17.63-37.64h25.17c3.95,0,7.51,1.5,10.7,4.5,3.18,3,4.78,6.41,4.78,10.23,0,2.37-.65,4.62-1.95,6.75-1.3,2.14-3.03,3.93-5.18,5.39-1.17.73-6.46,4.32-15.88,10.77Z"/>
      <path class="cls-1" d="m270.72,195.58c-1.8-2.02-4.58-2.58-8.35-1.68-1.35.27-2.67.92-3.97,1.95-1.3,1.03-2.94,2.49-4.91,4.37-2.6,2.51-4.89,4.47-6.86,5.85-1.97,1.39-4.17,2.18-6.59,2.36-3.59.27-6.08-.54-7.47-2.42-1.39-1.88-1.95-3.86-1.68-5.92.45-2.96,2.15-5.09,5.11-6.39,2.96-1.3,7.36-2.49,13.19-3.57,5.11-.99,9.22-1.99,12.32-3.03,3.1-1.03,5.65-2.76,7.67-5.18,2.02-2.42,2.85-5.7,2.49-9.83-.45-6.01-3.41-10.14-8.88-12.38-5.47-2.24-11.31-3.18-17.5-2.83-5.83.27-10.99,1.7-15.48,4.31-4.49,2.6-7.9,5.88-10.23,9.83l7.67,5.52c2.06-3.5,4.55-6.06,7.47-7.67,2.92-1.62,6.44-2.56,10.57-2.83,5.74-.54,9.76.25,12.05,2.35,2.29,2.11,3.03,4.24,2.22,6.39-.81,2.51-2.6,4.29-5.38,5.32-2.78,1.03-6.82,1.95-12.11,2.76-.36.09-.63.13-.81.13-4.49.72-8.39,1.68-11.71,2.89s-6.08,3.07-8.28,5.59c-2.2,2.51-3.34,5.83-3.43,9.96-.09,4.76,1.15,8.5,3.7,11.24,2.56,2.74,5.59,4.56,9.08,5.45,3.5.9,6.59,1.08,9.29.54,3.41-.72,6.28-1.86,8.61-3.43,2.33-1.57,4.66-3.52,7-5.85,1.44-1.35,2.54-2.29,3.3-2.83.76-.54,1.5-.76,2.22-.67,1.26.27,1.93,1.26,2.02,2.96.09,1.71-.36,4.62-1.35,8.75h11.44c.81-6.19,1.05-10.9.74-14.13-.32-3.23-1.37-5.85-3.16-7.87Z"/>
      <path class="cls-1" d="m356.57,158.05c-7.18-.54-12.79,3.1-16.82,10.9-4.04,7.81-6.73,14.72-8.07,20.73v-11.58c0-5.02-1.1-9.56-3.3-13.59s-5.54-6.19-10.03-6.46c-4.13-.27-7.76,1.06-10.9,3.97-3.14,2.92-5.72,6.39-7.74,10.43-2.02,4.04-4.15,9.78-6.39,17.23v-30.69h-11.98v59.35h11.98c2.87-11.48,5.34-20.34,7.4-26.58,2.06-6.24,4.44-11.62,7.13-16.15,2.69-4.53,5.43-6.66,8.21-6.39,2.33.27,3.5,3.41,3.5,9.42v39.7h12.11c.45-2.24,1.28-5.72,2.49-10.43,1.21-4.71,2.85-10.16,4.91-16.35,2.06-6.19,4.44-11.53,7.13-16.02,2.69-4.49,5.38-6.59,8.07-6.33,2.42.27,3.63,3.41,3.63,9.42v39.7h11.98v-40.24c0-5.02-1.08-9.56-3.23-13.59-2.15-4.04-5.52-6.19-10.09-6.46Z"/>
      <path class="cls-1" d="m426.65,161.02c-4.85-2.74-10.1-4.1-15.75-4.1s-11.06,1.37-15.95,4.1c-4.89,2.74-8.75,6.46-11.58,11.17-2.83,4.71-4.24,9.89-4.24,15.55s1.42,10.7,4.24,15.41c2.83,4.71,6.68,8.46,11.58,11.24,4.89,2.78,10.21,4.17,15.95,4.17s10.9-1.39,15.75-4.17c4.85-2.78,8.68-6.53,11.51-11.24,2.83-4.71,4.24-9.85,4.24-15.41s-1.41-10.72-4.24-15.48c-2.83-4.76-6.66-8.5-11.51-11.24Zm-1.88,41.25c-3.86,4.04-8.48,6.06-13.86,6.06s-10.14-2.02-14-6.06c-3.86-4.04-5.79-8.88-5.79-14.54s1.93-10.63,5.79-14.67c3.86-4.04,8.52-6.06,14-6.06s10,2.02,13.86,6.06c3.86,4.04,5.79,8.93,5.79,14.67s-1.93,10.5-5.79,14.54Z"/>
      <path class="cls-1" d="m505.6,199.72c-.27-3.86-1.66-6.98-4.17-9.35-2.51-2.38-5.43-4.19-8.75-5.45-3.32-1.26-7.54-2.56-12.65-3.9-5.11-1.35-8.86-2.56-11.24-3.63-2.38-1.08-3.66-2.6-3.83-4.58-.27-2.51,1.08-4.35,4.04-5.52,2.96-1.16,6.5-1.57,10.63-1.21,3.77.27,7,1.08,9.69,2.42,2.69,1.35,5.47,3.5,8.34,6.46l7.54-5.65c-2.24-2.6-4.4-4.64-6.46-6.12-2.06-1.48-4.71-2.85-7.94-4.1-3.23-1.26-7-1.97-11.31-2.15-8.61-.63-15.43.72-20.46,4.04-5.03,3.32-7.36,7.72-7,13.19.36,3.86,1.79,6.95,4.31,9.29,2.51,2.33,5.43,4.11,8.75,5.32,3.32,1.21,7.54,2.45,12.65,3.7,4.75,1.17,8.3,2.22,10.63,3.16,2.33.94,3.77,2.31,4.31,4.1.72,2.69-.2,5-2.76,6.93-2.56,1.93-6.8,2.58-12.72,1.95-3.14-.27-5.88-.85-8.21-1.75-2.33-.9-4.22-1.86-5.65-2.89-1.44-1.03-2.87-2.4-4.31-4.11l-8.08,5.25c2.24,2.78,4.42,4.96,6.53,6.53,2.11,1.57,4.89,3.01,8.35,4.31,3.45,1.3,7.42,2.09,11.91,2.35,8.16.54,14.96-.81,20.39-4.04,5.43-3.23,7.92-8.08,7.47-14.54Z"/>
      <path class="cls-1" d="m119.98,192.76c-4.68-4.96-9.4-9.91-14.39-14.56-1.11-1.01-2.2-2.04-3.37-3.04-.7-.59-1.76.06-1.53.95,1.63,6.16,4.71,11.88,8.49,16.98,3.06,4.06,6.81,8.04,11.07,11.38.62.49,1.53.05,1.53-.74v-8.7c0-.24-.09-.47-.26-.65-.51-.54-1.03-1.08-1.54-1.62Z"/>
      <path class="cls-1" d="m93.38,125.24c-.46-.95-1.88-.56-1.79.49.12,1.41.3,2.82.51,4.22,3.01,17.88,13.77,35.28,28.12,47.88.6.53,1.55.09,1.55-.71v-8.69c0-.22-.08-.44-.23-.61-11.02-12.78-20.46-26.49-28.17-42.57Z"/>
      <path class="cls-1" d="m110.13,114.31c-.79-.46-1.71.38-1.33,1.22.64,1.4,1.34,2.72,2.02,4.06,3.14,6.07,6.63,11.93,10.15,17.77.27.46.54.9.81,1.35v-14.21c0-.23-.08-.46-.24-.63-3.31-3.73-7.11-7.04-11.41-9.56Z"/>
      <path class="cls-1" d="m44.46,73.28l4.8,8.82c.25.45.9.44,1.13-.02l4.64-9.16c.15-.3.05-.66-.24-.83-1.67-.96-3.25-3.31-4.37-5.11-.24-.39-.81-.41-1.07-.02-1.2,1.78-2.76,4.37-4.66,5.47-.3.17-.4.55-.24.85Z"/>
      <path class="cls-1" d="m45.45,101.68c1.38.95,2.75,1.93,4.06,3.09,12.5-12.07,28.72-23.87,46.02-27.31-2.64-1.43-4.51-3.96-5.07-6.92-1.03-5.3-3.09-14-6.72-21.94,4.74-8.55,2.05-24.16,2.05-24.16l-7.28,5.7-5.19,4.06c-2.77-2.13-5.92-3.48-9.52-3.69-2.63-.15-5.01-.27-7.18-.36-6.55-.26-11.07-.24-14.13-.13-4.33.15-5.71.49-5.71.49,0,0-4.9.29-10.32,4.02l-5.15-4.03-7.74-6.05s-2.74,15.8,2.13,24.32c-2.85,7.38-4.34,17.73-2.76,32.26.12,1.18.03,2.36-.26,3.5,11.3,4.95,22.4,10.42,32.74,17.16Zm-13.17-63.26c1.35-.64,2.82-.97,4.29-.97.37,0,.73.02,1.1.06,1.1.12,2.17.42,3.18.92.04.02.08.05.12.07,1.24.63,2.31,1.55,3.18,2.64.12.15.26.3.37.46l1.2,1.7,3.35,4.71.27.39c.11.15.28.23.45.23s.33-.08.44-.23l.27-.39,4.23-6.08c.19-.27.39-.53.6-.78.63-.76,1.38-1.41,2.22-1.93.07-.05.14-.09.21-.12.21-.12.42-.25.63-.36,1.04-.56,2.16-.93,3.31-1.08.39-.05.76-.09,1.15-.09,1.55-.02,3.09.3,4.51,1,.33.16.66.33,1,.51-.14,4.25-1.14,7.23-1.92,8.95-.53,1.16-.96,1.74-.96,1.74-10.65,9.74-11.61,14.61-11.61,14.61l.25-.11-.33.23s1.75,3.22,9.63,3.22,13.13-12.09,13.13-12.09l.38-1.57h0s3.07-1.38,3.07-1.38c0,0,.02-.02.03-.02,1.07,4.06,1.52,10.29-2.06,17.5-.72,1.45-1.62,2.72-2.67,3.86-7.32,7.97-21.41,9.23-24.85,16.06-.15.31-.46.47-.76.47-.22,0-.45-.09-.61-.26-.05-.06-.1-.13-.14-.21-.25-.49-.55-.94-.9-1.38-.18-.22-.36-.42-.56-.63-2.77-2.88-7.72-4.71-12.7-7.01-1.07-.49-2.13-1-3.18-1.55-4.19-2.2-8.04-5-10.19-9.33-3.58-7.21-3.13-13.43-2.06-17.5,0,0,.02.02.03.02l3.07,1.37.38,1.58s5.25,12.09,13.13,12.09,9.63-3.22,9.63-3.22l-.33-.24.26.11s-.97-4.87-11.61-14.61c0,0-.43-.58-.97-1.74-.78-1.72-1.78-4.7-1.92-8.96.42-.22.83-.43,1.26-.63Z"/>
      <path class="cls-1" d="m66.14,130.96c0-37.13,32.49-39.68,32.49-39.68,3.52.65,6.64,2.28,9.19,4.1,3.98,2.84,7.15,6.63,9.33,10.92,1.02,2,1.97,4.02,2.87,6.05-2.61-10.53-8.97-26.54-24.2-34.72-12.99,3.76-24.49,11.47-34.89,19.95-3.99,3.27-7.83,6.74-11.4,10.41l-.83-.83c-2.74-2.67-6.27-4.78-9.53-6.87-8.7-5.36-17.67-10.25-26.62-15.23-.27.87-.65,1.71-1.14,2.49-3.05,4.86-8.09,16.63-4.14,37.82,12.18,65.33,75.54,85.13,102.42,90.64,3.44.7,6.74-.44,9.03-2.66-18.08-17.67-52.59-54.98-52.59-82.38Zm27.53,72.48c-29.56-7.77-54.98-29.69-67.68-57.45-3.61-8.28-5.89-17.23-7.08-26.18-.53-4.69-.81-9.81-.69-14.51l.46-.04c.67,2.69,1.14,5.38,1.76,8.04.33,1.38,1.13,4.63,1.43,5.95,3.58,13.64,8.7,26.95,15.79,39.16,9.81,16.18,24.35,29.35,41.1,38.19,4.82,2.52,9.83,4.77,15.03,6.39,0,0-.11.45-.11.45Z"/>
      <path class="cls-1" d="m21.32,18.6v8.79l5.15,4.03c5.42-3.72,10.32-4.02,10.32-4.02,0,0,1.38-.34,5.71-.49,3.05-.11,7.57-.12,14.13.13,2.17.09,4.55.21,7.18.36,3.6.21,6.75,1.56,9.52,3.69l5.19-4.06v-8.47l5.66-1.6,7.55-2.13v19.68c-.92.54-1.55,1.52-1.55,2.66,0,.72.26,1.37.67,1.9l-2.21,7.38,4.64,6.18,4.64-6.18-2.21-7.38c.41-.53.67-1.18.67-1.9,0-1.14-.63-2.13-1.55-2.66V13.97l4.56-1.29L50.08.59,0,12.68l13.86,3.85,7.46,2.07Z"/>
      <path class="cls-1" d="m223,83.39c0-7.5-2.35-13.77-7.06-18.82-4.71-5.05-11.72-8.92-21.03-11.62l-20.56-6.15c-4.81-1.4-8.42-3.5-10.83-6.3-2.41-2.8-3.61-6-3.61-9.6,0-3.1.81-5.8,2.43-8.1,1.62-2.3,3.9-4.07,6.83-5.32,2.93-1.25,6.33-1.87,10.2-1.87,6.38,0,11.98,1.58,16.79,4.72,4.81,3.15,8.42,7.68,10.83,13.57l15.38-6.3c-1.88-5.4-4.89-10.17-9.02-14.32-4.14-4.15-9.08-7.4-14.83-9.75-5.76-2.35-12.14-3.52-19.15-3.52-7.43,0-13.99,1.35-19.7,4.05-5.7,2.7-10.15,6.45-13.34,11.25-3.19,4.8-4.79,10.3-4.79,16.5,0,7.2,2.28,13.5,6.83,18.9,4.55,5.4,11.22,9.4,20.01,12l22.13,6.6c4.6,1.3,8.11,3.18,10.51,5.62,2.41,2.45,3.61,5.68,3.61,9.67,0,3-.86,5.65-2.59,7.95-1.73,2.3-3.96,2.8-7.05,4.05-7.99,3.24-18.33,2.7-26-1-7.78-3.75-13.07-9.39-16.31-17.3.16.37-4.01,4.22-4.36,4.58-2.45,2.57-4.91,5.13-7.31,7.75,7.15,16.74,24.67,24.72,42.11,24.72,7.85,0,14.75-1.38,20.72-4.12,5.96-2.75,10.65-6.53,14.05-11.32,3.4-4.8,5.1-10.3,5.1-16.5Z"/>
      <path class="cls-1" d="m245.89,114.49c4.15,1.9,8.97,2.85,14.47,2.85,4.5,0,8.65-.65,12.45-1.95,3.8-1.3,7.15-3.15,10.05-5.55,1.42-1.18,2.72-2.46,3.9-3.86v9.55h16.2v-54.6c0-5.6-1.38-10.52-4.13-14.77-2.75-4.25-6.6-7.57-11.55-9.97-4.95-2.4-10.63-3.6-17.02-3.6-5.2,0-10.07.85-14.62,2.55-4.55,1.7-8.5,4.1-11.85,7.2-3.35,3.1-5.82,6.65-7.42,10.65l14.25,7.05c1.6-3.8,4.07-6.85,7.43-9.15,3.35-2.3,7.22-3.45,11.62-3.45,4.9,0,8.85,1.27,11.85,3.83,3,2.55,4.5,5.77,4.5,9.67v3.1l-25.8,4.25c-6.3,1-11.48,2.7-15.53,5.1-4.05,2.4-7.05,5.35-9,8.85-1.95,3.5-2.93,7.45-2.93,11.85,0,4.7,1.15,8.8,3.45,12.3,2.3,3.5,5.52,6.2,9.68,8.1Zm7.72-28.8c2.1-2.1,5.4-3.55,9.9-4.35l22.5-3.79v4.24c0,4.1-.97,7.83-2.93,11.18-1.95,3.35-4.65,6.02-8.1,8.02-3.45,2-7.43,3-11.93,3-3.7,0-6.72-.97-9.07-2.92-2.35-1.95-3.52-4.47-3.52-7.57s1.05-5.7,3.15-7.8Z"/>
      <rect class="cls-1" x="312.61" y="2" width="16.95" height="113.54"/>
      <polygon class="cls-1" points="419.15 34.4 400.55 34.4 379.48 91.41 358.4 34.4 339.95 34.4 371.75 115.54 387.2 115.54 419.15 34.4"/>
      <path class="cls-1" d="m467.34,109.84c1.42-1.18,2.72-2.46,3.9-3.86v9.55h16.2v-54.6c0-5.6-1.38-10.52-4.13-14.77-2.75-4.25-6.6-7.57-11.55-9.97-4.95-2.4-10.63-3.6-17.02-3.6-5.2,0-10.07.85-14.62,2.55-4.55,1.7-8.5,4.1-11.85,7.2-3.35,3.1-5.82,6.65-7.42,10.65l14.25,7.05c1.6-3.8,4.07-6.85,7.43-9.15,3.35-2.3,7.22-3.45,11.62-3.45,4.9,0,8.85,1.27,11.85,3.83,3,2.55,4.5,5.77,4.5,9.67v3.1l-25.8,4.25c-6.3,1-11.48,2.7-15.53,5.1-4.05,2.4-7.05,5.35-9,8.85-1.95,3.5-2.93,7.45-2.93,11.85,0,4.7,1.15,8.8,3.45,12.3,2.3,3.5,5.52,6.2,9.68,8.1,4.15,1.9,8.97,2.85,14.47,2.85,4.5,0,8.65-.65,12.45-1.95,3.8-1.3,7.15-3.15,10.05-5.55Zm-28.87-8.77c-2.35-1.95-3.52-4.47-3.52-7.57s1.05-5.7,3.15-7.8c2.1-2.1,5.4-3.55,9.9-4.35l22.5-3.79v4.24c0,4.1-.97,7.83-2.93,11.18-1.95,3.35-4.65,6.02-8.1,8.02-3.45,2-7.43,3-11.93,3-3.7,0-6.72-.97-9.07-2.92Z"/>
    </g>
  </g>
</svg>