<?xml version="1.0" encoding="UTF-8"?>
<svg id="Capa_2" data-name="Capa 2" xmlns="http://www.w3.org/2000/svg" viewBox="0 0 612.79 1085">
  <defs>
    <style>
      .cls-1 {
        fill: #29422c;
      }
    </style>
  </defs>
  <g id="Capa_2-2" data-name="Capa 2">
    <g>
      <path class="cls-1" d="m603.73,967c-23.52-24.96-47.29-49.85-72.4-73.26-5.57-5.1-11.05-10.29-16.97-15.3-3.5-2.97-8.85.32-7.67,4.76,8.19,30.99,23.7,59.78,42.73,85.43,15.4,20.44,34.29,40.45,55.68,57.28,3.12,2.45,7.7.25,7.7-3.72v-43.77c0-1.21-.46-2.38-1.3-3.26-2.57-2.7-5.17-5.43-7.76-8.16Z"/>
      <path class="cls-1" d="m469.87,627.25c-2.29-4.77-9.44-2.81-8.98,2.47.62,7.1,1.49,14.18,2.59,21.22,15.13,89.99,69.29,177.54,141.49,240.91,3.04,2.67,7.82.45,7.82-3.6v-43.74c0-1.13-.41-2.22-1.14-3.07-55.47-64.31-102.96-133.3-141.78-214.19Z"/>
      <path class="cls-1" d="m611.59,620.33c-16.66-18.77-35.77-35.43-57.41-48.12-3.97-2.33-8.6,1.93-6.68,6.12,3.23,7.03,6.75,13.71,10.16,20.43,15.79,30.52,33.36,60.04,51.06,89.44,1.36,2.29,2.72,4.55,4.08,6.8v-71.48c0-1.17-.43-2.31-1.2-3.18Z"/>
      <path class="cls-1" d="m223.7,365.76l24.17,44.4c1.24,2.27,4.52,2.23,5.69-.08l23.35-46.08c.76-1.51.24-3.34-1.23-4.19-8.39-4.82-16.34-16.68-21.98-25.7-1.23-1.97-4.07-2.04-5.37-.12-6.05,8.94-13.89,22-23.45,27.5-1.5.86-2.02,2.76-1.19,4.28Z"/>
      <path class="cls-1" d="m228.68,508.66c6.96,4.78,13.85,9.72,20.41,15.55,62.88-60.74,144.5-120.12,231.56-137.42-13.26-7.19-22.67-19.95-25.51-34.8-5.17-26.68-15.55-70.46-33.79-110.4,23.88-43.01,10.3-121.59,10.3-121.59l-36.63,28.66-26.09,20.41c-13.92-10.69-29.79-17.5-47.91-18.55-13.22-.74-25.2-1.36-36.12-1.79-32.97-1.28-55.72-1.21-71.08-.66-21.78.74-28.74,2.45-28.74,2.45,0,0-24.65,1.48-51.91,20.22l-25.9-20.3-38.92-30.45s-13.77,79.52,10.73,122.37c-14.35,37.14-21.81,89.24-13.88,162.35.62,5.95.15,11.9-1.28,17.62,56.85,24.93,112.73,52.42,164.75,86.33Zm-66.26-318.31c6.8-3.23,14.19-4.9,21.58-4.9,1.87,0,3.69.08,5.52.31,5.52.58,10.93,2.14,16.02,4.63.19.12.43.23.62.35,6.26,3.15,11.63,7.78,15.98,13.26.62.78,1.28,1.52,1.87,2.33l6.03,8.55,16.84,23.72,1.36,1.94c.54.78,1.4,1.17,2.26,1.17s1.67-.39,2.22-1.17l1.36-1.94,21.31-30.6c.93-1.36,1.94-2.68,2.99-3.93,3.19-3.81,6.92-7.12,11.16-9.72.35-.23.7-.43,1.05-.62,1.05-.62,2.1-1.24,3.19-1.83,5.21-2.84,10.89-4.67,16.64-5.44,1.94-.27,3.85-.43,5.79-.47,7.78-.12,15.55,1.52,22.71,5.02,1.67.82,3.35,1.67,5.02,2.57-.7,21.39-5.72,36.4-9.68,45.03-2.64,5.83-4.82,8.75-4.82,8.75-53.58,49-58.44,73.49-58.44,73.49l1.28-.55-1.67,1.18s8.81,16.22,48.45,16.22,66.06-60.83,66.06-60.83l1.9-7.89h0s15.44-6.92,15.44-6.92c.04-.04.12-.08.16-.12,5.4,20.45,7.66,51.76-10.34,88.04-3.62,7.27-8.17,13.69-13.42,19.4-36.82,40.09-107.71,46.47-125.05,80.8-.78,1.56-2.3,2.37-3.81,2.37-1.13,0-2.26-.47-3.07-1.32-.27-.31-.51-.66-.7-1.05-1.24-2.45-2.76-4.74-4.51-6.96-.89-1.09-1.83-2.14-2.8-3.19-13.92-14.5-38.85-23.72-63.89-35.27-5.37-2.49-10.73-5.06-15.98-7.82-21.08-11.08-40.48-25.16-51.29-46.97-18-36.28-15.75-67.58-10.34-88.04.04.04.12.08.16.12l15.42,6.88,1.92,7.94s26.43,60.83,66.06,60.83,48.45-16.22,48.45-16.22l-1.68-1.19,1.3.56s-4.9-24.5-58.44-73.49c0,0-2.18-2.92-4.86-8.75-3.93-8.63-8.94-23.64-9.65-45.07,2.1-1.13,4.2-2.18,6.34-3.19Z"/>
      <path class="cls-1" d="m332.82,656.02c0-186.84,163.49-199.66,163.49-199.66,17.72,3.27,33.4,11.45,46.23,20.61,20.04,14.3,35.97,33.35,46.96,54.94,5.13,10.07,9.92,20.23,14.46,30.46-13.13-52.97-45.13-133.52-121.78-174.7-65.36,18.9-123.26,57.73-175.59,100.39-20.08,16.43-39.42,33.91-57.35,52.37l-4.2-4.19c-13.78-13.42-31.54-24.07-47.94-34.58-43.79-26.98-88.94-51.59-133.94-76.63-1.35,4.37-3.26,8.58-5.73,12.51-15.35,24.44-40.71,83.69-20.84,190.33,61.3,328.76,380.12,428.36,515.39,456.09,17.29,3.54,33.93-2.19,45.43-13.38-91-88.93-264.61-276.67-264.61-414.55Zm138.51,364.7c-148.75-39.08-276.68-149.42-340.58-289.07-18.18-41.68-29.66-86.71-35.62-131.73-2.64-23.59-4.09-49.37-3.47-73.02l2.33-.2c3.35,13.52,5.75,27.06,8.85,40.43,1.68,6.97,5.7,23.29,7.18,29.96,18.02,68.62,43.78,135.6,79.45,197.04,49.36,81.43,122.52,147.68,206.79,192.17,24.26,12.67,49.48,24.03,75.63,32.15,0,0-.55,2.27-.55,2.27Z"/>
      <path class="cls-1" d="m107.28,90.65v44.25l25.9,20.3c27.26-18.74,51.91-20.22,51.91-20.22,0,0,6.96-1.71,28.74-2.45,15.36-.54,38.11-.62,71.08.66,10.93.43,22.9,1.05,36.12,1.79,18.12,1.05,33.99,7.85,47.91,18.55l26.09-20.41v-42.62l28.5-8.04,37.98-10.72v99.04c-4.63,2.69-7.78,7.65-7.78,13.4,0,3.62,1.29,6.9,3.36,9.55l-11.13,37.12,23.33,31.11,23.33-31.11-11.13-37.12c2.07-2.64,3.36-5.93,3.36-9.55,0-5.74-3.15-10.7-7.78-13.4v-103.43l22.96-6.48L252,0,0,60.86l69.75,19.36,37.53,10.43Z"/>
    </g>
  </g>
</svg>