<?xml version="1.0" encoding="UTF-8"?>
<svg id="Capa_2" data-name="Capa 2" xmlns="http://www.w3.org/2000/svg" viewBox="0 0 584.99 1014">
  <defs>
    <style>
      .cls-1 {
        fill: #29422c;
      }
    </style>
  </defs>
  <g id="Capa_2-2" data-name="Capa 2">
    <g>
      <path class="cls-1" d="m579.84,890.26l-6.93-7.29c-20.74-22.01-42.95-45.33-66.52-67.28l-3.32-3.06c-3.98-3.67-8.09-7.47-12.51-11.22-3.34-2.82-7.55-4.37-11.88-4.37-5.72,0-11.22,2.71-14.71,7.25-3.48,4.52-4.64,10.3-3.17,15.85,7.35,27.82,21.19,55.55,41.19,82.51,15.55,20.63,33.92,39.53,53.15,54.65,3.25,2.55,7.29,3.95,11.38,3.95,6.06,0,11.75-2.94,15.32-8.1,2.2-3.19,3.15-7.08,3.15-10.95v-39.05c0-4.79-1.84-9.41-5.15-12.88Zm-8.98,51.92c0,3.85-4.46,6-7.48,3.62-19.24-15.2-36.23-33.23-50.1-51.65-17.07-23.01-31.02-48.79-38.53-76.54-1.19-4.38,3.97-7.73,7.42-4.78,5.1,4.36,9.86,8.86,14.68,13.28,22.82,21.27,44.41,43.88,65.78,66.56,2.33,2.45,4.66,4.9,6.97,7.33.81.86,1.26,1.99,1.26,3.17v39.03Z"/>
      <path class="cls-1" d="m580.52,769.36c-52.89-61.32-94.36-123.95-126.77-191.48-3.1-6.46-9.45-10.48-16.56-10.48-5.21,0-10.2,2.19-13.7,6-3.5,3.82-5.17,8.81-4.72,14.06.57,6.58,1.4,13.39,2.49,20.4,13.82,82.21,62.36,165,133.17,227.15,3.36,2.94,7.65,4.57,12.09,4.57h0c6.04,0,11.73-2.93,15.31-8.1,2.21-3.19,3.16-7.1,3.16-10.98v-39.12c0-4.41-1.59-8.68-4.47-12.02Zm-9.66,51.1c0,3.98-4.69,6.06-7.68,3.42-65.31-57.53-114.27-136.85-127.98-218.37-.91-5.85-1.65-11.72-2.2-17.61-.48-5.12,6.5-7.03,8.74-2.4,35.12,72.8,77.99,135,128.01,193,.72.83,1.11,1.89,1.11,2.98v38.97Z"/>
      <path class="cls-1" d="m580.41,568.42c-17.14-19.33-35.87-35.01-55.65-46.61-2.84-1.67-6.05-2.55-9.3-2.55-7.9,0-15.03,5.03-17.67,13.03-1.44,4.37-.92,9.18,1,13.36,2.38,5.17,4.9,10.09,7.33,14.84l2.09,4.1c14.37,27.79,30.35,54.67,46.78,81.96,1.1,1.86,3.76,6.27,3.76,6.27,2.6,4.32,7.24,6.84,12.1,6.84,2.1,0,4.25-.46,6.28-1.49,5.02-2.52,7.85-8.02,7.85-13.64v-63.84c0-4.51-1.58-8.92-4.58-12.29Zm-9.55,77.12c-1.24-2.05-2.47-4.1-3.71-6.18-16.08-26.71-32.04-53.52-46.39-81.25-2.96-5.84-6.01-11.63-8.84-17.71-1.88-4.06,2.64-8.21,6.48-5.93,19.3,11.45,36.37,26.37,51.28,43.16.75.85,1.17,1.95,1.17,3.09v64.83Z"/>
      <g>
        <path class="cls-1" d="m464.3,443.02s.07,0,.1,0c11.44,2.44,23.01,7.79,34.42,15.94,15.89,11.34,29.13,26.84,38.28,44.82,4.32,8.49,8.51,17.32,12.82,27,2.32,5.23,7.47,8.4,12.91,8.4,1.52,0,3.07-.25,4.59-.77,6.93-2.38,10.89-9.65,9.13-16.76-13.63-55.02-45.12-128.79-117.66-167.77-.18-.1-.37-.16-.55-.25-.27-.17-.51-.36-.79-.51-8.41-4.56-14.26-12.53-16.04-21.89-4.47-23.06-12.27-55.55-24.9-87.4l12.38,16.51c1.26,1.69,2.8,3.21,4.66,4.19,6.62,3.46,14.1,1.43,18.13-3.94l21.1-28.14c2.75-3.67,3.6-8.42,2.28-12.81l-8.35-27.83c-.02-.06-.02-.12,0-.18,1.26-3.22,1.91-6.65,1.91-10.17,0-6.87-2.56-13.45-7-18.53-.04-.05-.07-.12-.07-.18v-76.51c0-.13.09-.25.22-.29l9.67-2.73c5.33-1.5,9.74-5.71,10.73-11.16,1.39-7.58-3.38-14.6-10.52-16.36L246.44.41c-1.11-.27-2.24-.41-3.37-.41s-2.23.13-3.32.39L10.81,55.68c-7.17,1.73-11.96,8.77-10.57,16.37,1.01,5.47,5.44,9.69,10.81,11.18l86.2,23.93c.13.04.22.15.22.29v13.76c0,.25-.29.39-.48.23l-12.04-9.42c-2.53-1.98-5.6-3-8.71-3-1.71,0-3.44.31-5.08.95-4.64,1.79-7.99,5.88-8.84,10.77-.52,3.01-11.95,70.97,8.23,114.43.03.07.03.14.01.21-13.81,39.55-17.59,89.28-11.23,147.91.39,3.68.11,7.41-.81,11.08-.08.33-.1.65-.16.98-.09.26-.24.48-.32.74-.89,2.86-2.12,5.56-3.67,8.02-15.83,25.19-39.6,82.47-20.86,183.03,57.28,307.21,354.27,399.98,479.3,425.61,4,.82,8.07,1.24,12.11,1.24,15.65,0,30.51-6.08,41.85-17.12,2.73-2.66,4.27-6.3,4.27-10.11,0-3.81-1.53-7.46-4.25-10.12-71-69.39-236.15-244.01-236.15-366.52,0-146.17,116.84-165.15,133.67-167.12ZM77.5,87.01l-62.26-17.29c-.3-.08-.29-.5,0-.58L243,14.15s.09-.01.14,0l224.17,55c.3.07.3.49,0,.58l-19.56,5.52c-.13.04-.22.15-.22.29v93.58c0,.1.05.19.14.24,4.13,2.47,6.93,6.93,6.93,12.09,0,3.23-1.13,6.18-2.96,8.56-.06.07-.07.17-.05.25l10.03,33.44c.03.09,0,.19-.05.26l-20.87,27.82c-.12.16-.36.16-.48,0l-20.87-27.82c-.06-.08-.07-.17-.05-.26l10.03-33.44c.03-.09,0-.18-.05-.25-1.83-2.38-2.96-5.32-2.96-8.56,0-5.16,2.8-9.63,6.93-12.09.09-.05.14-.14.14-.24v-89.43c0-.2-.19-.34-.38-.29l-34.13,9.63-25.67,7.25c-.13.04-.22.15-.22.29v38.36c0,.09-.04.18-.11.23l-23.41,18.32c-.11.08-.25.08-.36,0-12.6-9.64-26.96-15.76-43.34-16.71-12.01-.67-22.89-1.24-32.82-1.62-29.96-1.17-50.62-1.1-64.58-.6-19.78.67-26.11,2.23-26.11,2.23,0,0-22.29,1.34-46.98,18.25-.11.07-.25.07-.35,0l-23.25-18.22c-.07-.06-.11-.14-.11-.23v-39.83c0-.13-.09-.25-.22-.29l-33.88-9.41Zm333.88,22.95c-1.65-.63-3.37-.95-5.08-.95-3.11,0-6.18,1.02-8.71,3l-9.96,7.79c-.2.15-.48.01-.48-.23v-12.33c0-.13.09-.25.22-.29l31.54-8.9c.19-.05.38.09.38.29v18c0,.31-.4.4-.55.12-1.57-2.94-4.15-5.28-7.35-6.51ZM85.92,234.21c-21.1-37.09-10.8-104.23-9.76-110.58.04-.22.3-.31.48-.18l34.97,27.35,23.36,18.31c.1.08.24.08.35,0,24.69-16.91,46.98-18.25,46.98-18.25,0,0,6.32-1.55,26.11-2.23,13.96-.49,34.62-.57,64.58.6,9.93.39,20.81.95,32.82,1.62,16.39.95,30.74,7.08,43.34,16.71.11.08.25.08.36,0l23.53-18.41,32.88-25.73c.18-.14.44-.05.48.18,1.03,6.32,11.18,72.65-9.37,109.86-.04.08-.05.17,0,.25,16.53,36.25,25.95,75.96,30.64,100.17,2.53,13.24,10.81,24.65,22.5,31.25.24.13.19.47-.08.52-78.73,15.89-152.51,69.57-209.43,124.51-.11.11-.28.11-.39,0-5.91-5.22-12.09-9.66-18.34-13.95-47.2-30.76-97.89-55.71-149.46-78.33-.13-.06-.2-.2-.16-.33,1.26-5.12,1.66-10.44,1.11-15.77-7.2-66.34-.44-113.64,12.56-147.37.03-.08.02-.16-.02-.24Zm230.58,375.92c0,125.16,157.45,295.52,240.18,376.41.12.12.12.32,0,.44-10.44,10.02-25.45,15.14-41.05,11.94-122.9-25.19-412.55-115.68-468.24-414.36-18.05-96.88,4.98-150.72,18.93-172.92,2.18-3.47,3.88-7.18,5.1-11.03.06-.18.25-.26.42-.17,40.78,22.69,81.69,44.99,121.37,69.45,14.9,9.55,31.04,19.22,43.55,31.42l3.6,3.6c.12.12.3.12.42,0,16.23-16.69,33.73-32.5,51.9-47.37,47.51-38.73,100.07-73.99,159.4-91.17.08-.02.16-.01.23.03,69.55,37.43,98.6,110.56,110.52,158.66-4.13-9.29-8.48-18.52-13.14-27.67-9.98-19.61-24.46-36.92-42.67-49.91-11.65-8.32-25.88-15.74-41.96-18.72-.03,0-.03,0-.06,0-1.85.15-148.51,12.72-148.51,181.4Z"/>
        <path class="cls-1" d="m158.62,374.76c4.77,2.51,9.64,4.84,14.52,7.1,22.75,10.49,45.4,18.87,58.04,32.04.88.95,1.73,1.91,2.54,2.9,1.59,2.01,2.97,4.1,4.1,6.32.18.35.39.67.64.95.74.78,1.77,1.2,2.79,1.2,1.38,0,2.75-.74,3.46-2.15,15.76-31.19,80.16-36.99,113.61-73.41,4.77-5.19,8.9-11.02,12.19-17.63,16.36-32.96,14.31-61.4,9.4-79.98-.04.04-.11.07-.14.11l-14.03,6.29h0s-1.72,7.14-1.72,7.14c0,.02,0,.01,0,.03-.26.59-24.2,55.26-60.02,55.26s-44.01-14.74-44.01-14.74l1.51-1.07-1.16.5s4.41-22.25,53.07-66.75c.01-.01.01-.01.03-.03.1-.14,2.04-2.79,4.38-7.94,3.59-7.82,8.13-21.39,8.79-40.71,0-.12-.06-.23-.16-.29-1.46-.78-2.92-1.53-4.39-2.24-6.5-3.18-13.57-4.66-20.63-4.56-1.77.04-3.5.18-5.26.42-5.23.71-10.39,2.37-15.12,4.95-.99.53-1.94,1.1-2.9,1.66-.32.18-.64.35-.95.57-3.85,2.37-7.24,5.37-10.14,8.83-.95,1.13-1.87,2.33-2.72,3.57l-19.36,27.8-1.24,1.77c-.5.71-1.27,1.06-2.01,1.06-.78,0-1.55-.35-2.05-1.06l-1.24-1.77-15.3-21.55-5.48-7.77c-.53-.74-1.13-1.41-1.7-2.12-3.96-4.98-8.83-9.19-14.52-12.05-.18-.11-.39-.21-.57-.32-4.63-2.26-9.54-3.67-14.56-4.2-1.66-.21-3.32-.28-5.02-.28-6.71,0-13.42,1.52-19.61,4.45-1.89.89-3.74,1.82-5.59,2.81-.1.05-.17.17-.16.28.66,19.36,5.2,32.93,8.76,40.75,2.37,5.16,4.31,7.8,4.41,7.94.01.02.01.01.03.03,48.62,44.5,53.07,66.75,53.07,66.75l-1.19-.51,1.53,1.08s-8,14.74-44.01,14.74-59.76-54.68-60.02-55.26c0-.02,0-.01,0-.03l-1.7-7.04c-.02-.09-.08-.16-.17-.2l-13.88-6.19s-.11-.07-.14-.11c-4.91,18.58-6.96,47.02,9.4,79.98,9.82,19.82,27.45,32.61,46.6,42.68Zm60.07-32.36c8.44-5.01,15.39-16.43,20.8-24.47,1.29-1.92,4.14-1.85,5.37.12,5.05,8.06,12.07,18.44,19.49,22.83,1.46.86,1.99,2.68,1.23,4.19l-20.83,41.11c-1.17,2.31-4.46,2.36-5.7.08l-21.55-39.59c-.83-1.52-.3-3.4,1.19-4.28Z"/>
        <path class="cls-1" d="m186.25,735.6c-32.41-55.81-55.81-116.67-72.18-179.01-1.35-6.06-5-20.89-6.53-27.22-2.81-12.15-4.99-24.45-8.04-36.73l-2.11.18c-.56,21.49.75,44.9,3.15,66.34,5.42,40.9,15.84,81.81,32.36,119.68,58.05,126.88,174.28,227.12,309.42,262.62,0,0,.5-2.06.5-2.06-23.76-7.38-46.67-17.7-68.71-29.21-76.56-40.42-143.03-100.62-187.87-174.59Z"/>
      </g>
    </g>
  </g>
</svg>