<?xml version="1.0" encoding="UTF-8"?>
<svg id="Capa_2" data-name="Capa 2" xmlns="http://www.w3.org/2000/svg" viewBox="0 0 505.51 219.58">
  <defs>
    <style>
      .cls-1 {
        fill: #dcd1bf;
      }
    </style>
  </defs>
  <g id="Capa_2-2" data-name="Capa 2">
    <g>
      <g>
        <path class="cls-1" d="m179.38,190.36c5.65,6.82,11.44,12.64,17.36,17.46,5.92,4.82,11.17,8.41,15.75,10.77h-20.05c-6.01-3.36-11.49-7.75-16.42-13.16-4.93-5.41-9.08-10.79-12.45-16.16-3.36-5.36-6.98-12.32-10.83-20.86v50.18h-11.84v-84.96h39.57c4.93,0,9.49,1.16,13.66,3.48,4.17,2.32,7.52,5.41,10.03,9.27,2.51,3.87,3.77,7.98,3.77,12.34s-1.1,8.07-3.3,11.66c-2.2,3.59-5.14,6.52-8.81,8.8l-16.42,11.18Zm-24.09-46.36c3.86,13.55,9.74,26.09,17.63,37.64,9.42-6.45,14.71-10.04,15.88-10.77,2.15-1.45,3.88-3.25,5.18-5.39,1.3-2.13,1.95-4.38,1.95-6.75,0-3.82-1.6-7.23-4.78-10.23-3.19-3-6.75-4.5-10.7-4.5h-25.17Z"/>
        <path class="cls-1" d="m239.89,208.44c2.42-.18,4.62-.96,6.59-2.36,1.97-1.39,4.26-3.34,6.86-5.85,1.97-1.88,3.61-3.34,4.91-4.37,1.3-1.03,2.62-1.68,3.97-1.95,3.77-.9,6.55-.34,8.35,1.68,1.79,2.02,2.85,4.64,3.16,7.87.31,3.23.07,7.94-.74,14.13h-11.44c.99-4.13,1.44-7.04,1.35-8.75-.09-1.7-.76-2.69-2.02-2.96-.72-.09-1.46.13-2.22.67-.76.54-1.86,1.48-3.3,2.83-2.33,2.33-4.66,4.29-7,5.85-2.33,1.57-5.21,2.71-8.61,3.43-2.69.54-5.79.36-9.29-.54-3.5-.9-6.53-2.71-9.08-5.45-2.56-2.73-3.79-6.48-3.7-11.24.09-4.13,1.23-7.45,3.43-9.96,2.2-2.51,4.96-4.37,8.28-5.59,3.32-1.21,7.22-2.17,11.71-2.89.18,0,.45-.04.81-.13,5.29-.81,9.33-1.73,12.11-2.76,2.78-1.03,4.58-2.8,5.38-5.32.81-2.15.07-4.28-2.22-6.39-2.29-2.11-6.3-2.89-12.05-2.35-4.13.27-7.65,1.21-10.57,2.83-2.92,1.61-5.41,4.17-7.47,7.67l-7.67-5.52c2.33-3.95,5.74-7.22,10.23-9.83,4.49-2.6,9.65-4.04,15.48-4.31,6.19-.36,12.02.58,17.5,2.83,5.47,2.24,8.43,6.37,8.88,12.38.36,4.13-.47,7.4-2.49,9.83-2.02,2.42-4.58,4.15-7.67,5.18-3.09,1.03-7.2,2.04-12.32,3.03-5.83,1.08-10.23,2.27-13.19,3.57-2.96,1.3-4.66,3.43-5.11,6.39-.27,2.07.29,4.04,1.68,5.92,1.39,1.88,3.88,2.69,7.47,2.42Z"/>
        <path class="cls-1" d="m319.42,218.35v-39.7c0-6.01-1.17-9.15-3.5-9.42-2.78-.27-5.52,1.86-8.21,6.39-2.69,4.53-5.07,9.92-7.13,16.15-2.06,6.24-4.53,15.1-7.4,26.58h-11.98v-59.35h11.98v30.69c2.24-7.45,4.37-13.19,6.39-17.23,2.02-4.04,4.6-7.51,7.74-10.43,3.14-2.91,6.77-4.24,10.9-3.97,4.48.27,7.83,2.42,10.03,6.46,2.2,4.04,3.3,8.57,3.3,13.59v11.58c1.35-6.01,4.04-12.92,8.07-20.73,4.04-7.81,9.65-11.44,16.82-10.9,4.58.27,7.94,2.42,10.09,6.46,2.15,4.04,3.23,8.57,3.23,13.59v40.24h-11.98v-39.7c0-6.01-1.21-9.15-3.63-9.42-2.69-.27-5.38,1.84-8.07,6.33-2.69,4.49-5.07,9.83-7.13,16.02-2.06,6.19-3.7,11.64-4.91,16.35-1.21,4.71-2.04,8.19-2.49,10.43h-12.11Z"/>
        <path class="cls-1" d="m410.76,218.56c-5.74,0-11.06-1.39-15.95-4.17-4.89-2.78-8.75-6.53-11.58-11.24-2.83-4.71-4.24-9.85-4.24-15.41s1.42-10.84,4.24-15.55c2.83-4.71,6.68-8.43,11.58-11.17,4.89-2.74,10.21-4.1,15.95-4.1s10.9,1.37,15.75,4.1c4.85,2.74,8.68,6.48,11.51,11.24,2.83,4.76,4.24,9.92,4.24,15.48s-1.41,10.7-4.24,15.41c-2.83,4.71-6.66,8.46-11.51,11.24-4.85,2.78-10.1,4.17-15.75,4.17Zm0-51.55c-5.47,0-10.14,2.02-14,6.06-3.86,4.04-5.79,8.93-5.79,14.67s1.93,10.5,5.79,14.54c3.86,4.04,8.52,6.06,14,6.06s10-2.02,13.86-6.06c3.86-4.04,5.79-8.88,5.79-14.54s-1.93-10.63-5.79-14.67c-3.86-4.04-8.48-6.06-13.86-6.06Z"/>
        <path class="cls-1" d="m489.78,206.65c2.56-1.93,3.47-4.24,2.76-6.93-.54-1.79-1.97-3.16-4.31-4.1-2.33-.94-5.88-2-10.63-3.16-5.11-1.25-9.33-2.49-12.65-3.7-3.32-1.21-6.24-2.98-8.75-5.32-2.51-2.33-3.95-5.43-4.31-9.29-.36-5.47,1.97-9.87,7-13.19,5.02-3.32,11.84-4.66,20.46-4.04,4.31.18,8.07.9,11.31,2.15,3.23,1.26,5.88,2.62,7.94,4.1,2.06,1.48,4.22,3.52,6.46,6.12l-7.54,5.65c-2.87-2.96-5.65-5.11-8.34-6.46-2.69-1.35-5.92-2.15-9.69-2.42-4.13-.36-7.67.05-10.63,1.21-2.96,1.17-4.31,3.01-4.04,5.52.18,1.97,1.46,3.5,3.83,4.58,2.38,1.08,6.12,2.29,11.24,3.63,5.11,1.35,9.33,2.65,12.65,3.9,3.32,1.26,6.24,3.07,8.75,5.45,2.51,2.38,3.9,5.5,4.17,9.35.45,6.46-2.04,11.31-7.47,14.54-5.43,3.23-12.23,4.58-20.39,4.04-4.49-.27-8.46-1.05-11.91-2.35-3.46-1.3-6.24-2.74-8.35-4.31-2.11-1.57-4.28-3.75-6.53-6.53l8.08-5.25c1.43,1.71,2.87,3.07,4.31,4.11,1.44,1.03,3.32,2,5.65,2.89,2.33.9,5.07,1.48,8.21,1.75,5.92.63,10.16-.02,12.72-1.95Z"/>
      </g>
      <g>
        <path class="cls-1" d="m183,115.34c-17.44,0-34.96-7.98-42.11-24.72,2.4-2.61,4.86-5.18,7.31-7.75.35-.36,4.52-4.21,4.36-4.58,3.24,7.91,8.53,13.55,16.31,17.3,7.67,3.7,18.01,4.24,26,1,3.08-1.25,5.32-1.75,7.05-4.05,1.73-2.3,2.59-4.95,2.59-7.95,0-4-1.2-7.22-3.61-9.67-2.41-2.45-5.91-4.32-10.51-5.62l-22.13-6.6c-8.79-2.6-15.46-6.6-20.01-12-4.55-5.4-6.83-11.7-6.83-18.9,0-6.2,1.59-11.7,4.79-16.5,3.19-4.8,7.64-8.55,13.34-11.25,5.7-2.7,12.27-4.05,19.7-4.05,7.01,0,13.39,1.18,19.15,3.52,5.75,2.35,10.69,5.6,14.83,9.75,4.13,4.15,7.14,8.92,9.02,14.32l-15.38,6.3c-2.41-5.9-6.02-10.42-10.83-13.57-4.82-3.15-10.41-4.72-16.79-4.72-3.87,0-7.27.63-10.2,1.87-2.93,1.25-5.21,3.03-6.83,5.32-1.62,2.3-2.43,5-2.43,8.1,0,3.6,1.2,6.8,3.61,9.6,2.41,2.8,6.02,4.9,10.83,6.3l20.56,6.15c9.31,2.7,16.32,6.58,21.03,11.62,4.71,5.05,7.06,11.32,7.06,18.82,0,6.2-1.7,11.7-5.1,16.5-3.4,4.8-8.08,8.57-14.05,11.32-5.96,2.75-12.87,4.12-20.72,4.12Z"/>
        <path class="cls-1" d="m260.22,117.34c-5.5,0-10.32-.95-14.47-2.85-4.15-1.9-7.38-4.6-9.68-8.1-2.3-3.5-3.45-7.6-3.45-12.3,0-4.4.97-8.35,2.93-11.85,1.95-3.5,4.95-6.45,9-8.85,4.05-2.4,9.23-4.1,15.53-5.1l28.2-4.65v13.5l-24.9,4.2c-4.5.8-7.8,2.25-9.9,4.35-2.1,2.1-3.15,4.7-3.15,7.8s1.17,5.63,3.52,7.57,5.37,2.92,9.07,2.92c4.5,0,8.47-1,11.93-3,3.45-2,6.15-4.67,8.1-8.02,1.95-3.35,2.93-7.07,2.93-11.18v-20.85c0-3.9-1.5-7.12-4.5-9.67-3-2.55-6.95-3.83-11.85-3.83-4.4,0-8.27,1.15-11.62,3.45-3.35,2.3-5.82,5.35-7.43,9.15l-14.25-7.05c1.6-4,4.07-7.55,7.42-10.65,3.35-3.1,7.3-5.5,11.85-7.2,4.55-1.7,9.42-2.55,14.62-2.55,6.4,0,12.07,1.2,17.02,3.6,4.95,2.4,8.8,5.73,11.55,9.97,2.75,4.25,4.13,9.18,4.13,14.77v54.6h-16.2v-14.55l3.3.3c-1.9,3.3-4.3,6.15-7.2,8.55-2.9,2.4-6.25,4.25-10.05,5.55-3.8,1.3-7.95,1.95-12.45,1.95Z"/>
        <path class="cls-1" d="m312.47,115.54V2h16.95v113.54h-16.95Z"/>
        <path class="cls-1" d="m371.61,115.54l-31.8-81.14h18.45l24.45,66.15h-6.75l24.45-66.15h18.6l-31.95,81.14h-15.45Z"/>
        <path class="cls-1" d="m444.7,117.34c-5.5,0-10.32-.95-14.47-2.85-4.15-1.9-7.38-4.6-9.68-8.1-2.3-3.5-3.45-7.6-3.45-12.3,0-4.4.97-8.35,2.93-11.85,1.95-3.5,4.95-6.45,9-8.85,4.05-2.4,9.23-4.1,15.53-5.1l28.2-4.65v13.5l-24.9,4.2c-4.5.8-7.8,2.25-9.9,4.35-2.1,2.1-3.15,4.7-3.15,7.8s1.17,5.63,3.52,7.57,5.37,2.92,9.07,2.92c4.5,0,8.47-1,11.93-3,3.45-2,6.15-4.67,8.1-8.02,1.95-3.35,2.93-7.07,2.93-11.18v-20.85c0-3.9-1.5-7.12-4.5-9.67-3-2.55-6.95-3.83-11.85-3.83-4.4,0-8.27,1.15-11.62,3.45-3.35,2.3-5.82,5.35-7.43,9.15l-14.25-7.05c1.6-4,4.07-7.55,7.42-10.65,3.35-3.1,7.3-5.5,11.85-7.2,4.55-1.7,9.42-2.55,14.62-2.55,6.4,0,12.07,1.2,17.02,3.6,4.95,2.4,8.8,5.73,11.55,9.97,2.75,4.25,4.13,9.18,4.13,14.77v54.6h-16.2v-14.55l3.3.3c-1.9,3.3-4.3,6.15-7.2,8.55-2.9,2.4-6.25,4.25-10.05,5.55-3.8,1.3-7.95,1.95-12.45,1.95Z"/>
      </g>
      <g>
        <path class="cls-1" d="m124.7,192.97l-1.49-1.57c-4.46-4.73-9.24-9.75-14.31-14.47l-.71-.66c-.86-.79-1.74-1.61-2.69-2.41-.72-.61-1.62-.94-2.55-.94-1.23,0-2.41.58-3.16,1.56-.75.97-1,2.22-.68,3.41,1.58,5.98,4.56,11.95,8.86,17.74,3.34,4.44,7.3,8.5,11.43,11.75.7.55,1.57.85,2.45.85,1.3,0,2.53-.63,3.3-1.74.47-.69.68-1.52.68-2.36v-8.4c0-1.03-.4-2.02-1.11-2.77Zm-1.93,11.17c0,.83-.96,1.29-1.61.78-4.14-3.27-7.79-7.15-10.78-11.11-3.67-4.95-6.67-10.49-8.29-16.46-.26-.94.85-1.66,1.6-1.03,1.1.94,2.12,1.9,3.16,2.86,4.91,4.57,9.55,9.44,14.15,14.31.5.53,1,1.05,1.5,1.58.17.18.27.43.27.68v8.39Z"/>
        <path class="cls-1" d="m124.85,166.97c-11.38-13.19-20.29-26.66-27.26-41.18-.67-1.39-2.03-2.25-3.56-2.25-1.12,0-2.19.47-2.95,1.29-.75.82-1.11,1.89-1.01,3.02.12,1.42.3,2.88.54,4.39,2.97,17.68,13.41,35.49,28.64,48.85.72.63,1.64.98,2.6.98h0c1.3,0,2.52-.63,3.29-1.74.48-.69.68-1.53.68-2.36v-8.41c0-.95-.34-1.87-.96-2.58Zm-2.08,10.99c0,.86-1.01,1.3-1.65.74-14.05-12.37-24.58-29.43-27.52-46.96-.2-1.26-.35-2.52-.47-3.79-.1-1.1,1.4-1.51,1.88-.52,7.55,15.66,16.77,29.03,27.53,41.51.15.18.24.41.24.64v8.38Z"/>
        <path class="cls-1" d="m124.82,123.75c-3.69-4.16-7.71-7.53-11.97-10.02-.61-.36-1.3-.55-2-.55-1.7,0-3.23,1.08-3.8,2.8-.31.94-.2,1.97.22,2.87.51,1.11,1.05,2.17,1.58,3.19l.45.88c3.09,5.98,6.53,11.76,10.06,17.63.24.4.81,1.35.81,1.35.56.93,1.56,1.47,2.6,1.47.45,0,.91-.1,1.35-.32,1.08-.54,1.69-1.72,1.69-2.93v-13.73c0-.97-.34-1.92-.98-2.64Zm-2.05,16.59c-.27-.44-.53-.88-.8-1.33-3.46-5.74-6.89-11.51-9.98-17.47-.64-1.25-1.29-2.5-1.9-3.81-.41-.87.57-1.77,1.39-1.27,4.15,2.46,7.82,5.67,11.03,9.28.16.18.25.42.25.66v13.94Z"/>
        <g>
          <path class="cls-1" d="m99.85,96.79s.01,0,.02,0c2.46.52,4.95,1.68,7.4,3.43,3.42,2.44,6.27,5.77,8.23,9.64.93,1.83,1.83,3.72,2.76,5.81.5,1.12,1.61,1.81,2.78,1.81.33,0,.66-.05.99-.17,1.49-.51,2.34-2.08,1.96-3.61-2.93-11.83-9.7-27.7-25.31-36.08-.04-.02-.08-.04-.12-.05-.06-.04-.11-.08-.17-.11-1.81-.98-3.07-2.69-3.45-4.71-.96-4.96-2.64-11.95-5.35-18.8l2.66,3.55c.27.36.6.69,1,.9,1.42.75,3.03.31,3.9-.85l4.54-6.05c.59-.79.77-1.81.49-2.75l-1.8-5.99s0-.03,0-.04c.27-.69.41-1.43.41-2.19,0-1.48-.55-2.89-1.5-3.98,0-.01-.01-.02-.01-.04v-16.45s.02-.05.05-.06l2.08-.59c1.15-.32,2.09-1.23,2.31-2.4.3-1.63-.73-3.14-2.26-3.52L53,1.6c-.24-.06-.48-.09-.72-.09s-.48.03-.71.08L2.32,13.48c-1.54.37-2.57,1.89-2.27,3.52.22,1.18,1.17,2.08,2.32,2.4l18.54,5.15s.05.03.05.06v2.96c0,.05-.06.08-.1.05l-2.59-2.03c-.54-.43-1.2-.65-1.87-.65-.37,0-.74.07-1.09.2-1,.38-1.72,1.26-1.9,2.32-.11.65-2.57,15.26,1.77,24.61,0,.01,0,.03,0,.04-2.97,8.51-3.78,19.2-2.42,31.81.08.79.02,1.59-.18,2.38-.02.07-.02.14-.03.21-.02.05-.05.1-.07.16-.19.62-.46,1.2-.79,1.73-3.4,5.42-8.52,17.74-4.49,39.36,12.32,66.07,76.19,86.02,103.08,91.53.86.18,1.74.27,2.61.27,3.37,0,6.56-1.31,9-3.68.59-.57.92-1.36.92-2.17s-.33-1.6-.91-2.18c-15.27-14.92-50.79-52.48-50.79-78.82,0-31.44,25.13-35.52,28.75-35.94ZM16.67,20.22l-13.39-3.72c-.06-.02-.06-.11,0-.12L52.26,4.55s.02,0,.03,0l48.21,11.83c.06.02.07.11,0,.12l-4.21,1.19s-.05.03-.05.06v20.13s.01.04.03.05c.89.53,1.49,1.49,1.49,2.6,0,.7-.24,1.33-.64,1.84-.01.02-.02.04-.01.05l2.16,7.19s0,.04-.01.06l-4.49,5.98s-.08.03-.1,0l-4.49-5.98s-.02-.04-.01-.06l2.16-7.19s0-.04-.01-.05c-.39-.51-.64-1.14-.64-1.84,0-1.11.6-2.07,1.49-2.6.02-.01.03-.03.03-.05v-19.23s-.04-.07-.08-.06l-7.34,2.07-5.52,1.56s-.05.03-.05.06v8.25s0,.04-.02.05l-5.04,3.94s-.05.02-.08,0c-2.71-2.07-5.8-3.39-9.32-3.59-2.58-.14-4.92-.27-7.06-.35-6.44-.25-10.89-.24-13.89-.13-4.25.14-5.61.48-5.61.48,0,0-4.79.29-10.1,3.92-.02.02-.05.02-.07,0l-5-3.92s-.02-.03-.02-.05v-8.57s-.02-.05-.05-.06l-7.29-2.02Zm71.81,4.94c-.35-.14-.72-.2-1.09-.2-.67,0-1.33.22-1.87.65l-2.14,1.68s-.1,0-.1-.05v-2.65s.02-.05.05-.06l6.78-1.91s.08.02.08.06v3.87c0,.07-.09.09-.12.03-.34-.63-.89-1.14-1.58-1.4ZM18.48,51.88c-4.54-7.98-2.32-22.42-2.1-23.78,0-.05.06-.07.1-.04l7.52,5.88,5.02,3.94s.05.02.07,0c5.31-3.64,10.1-3.92,10.1-3.92,0,0,1.36-.33,5.61-.48,3-.11,7.45-.12,13.89.13,2.13.08,4.47.21,7.06.35,3.52.2,6.61,1.52,9.32,3.59.02.02.05.02.08,0l5.06-3.96,7.07-5.53s.09,0,.1.04c.22,1.36,2.4,15.62-2.02,23.63,0,.02-.01.04,0,.05,3.56,7.8,5.58,16.34,6.59,21.54.54,2.85,2.32,5.3,4.84,6.72.05.03.04.1-.02.11-16.93,3.42-32.8,14.96-45.04,26.78-.02.02-.06.02-.08,0-1.27-1.12-2.6-2.08-3.95-3-10.15-6.62-21.05-11.98-32.14-16.85-.03-.01-.04-.04-.04-.07.27-1.1.36-2.25.24-3.39-1.55-14.27-.09-24.44,2.7-31.69,0-.02,0-.04,0-.05Zm49.59,80.85c0,26.92,33.86,63.56,51.65,80.95.03.03.03.07,0,.09-2.24,2.16-5.47,3.26-8.83,2.57-26.43-5.42-88.72-24.88-100.7-89.11-3.88-20.84,1.07-32.41,4.07-37.19.47-.75.83-1.54,1.1-2.37.01-.04.05-.06.09-.04,8.77,4.88,17.57,9.68,26.1,14.94,3.2,2.05,6.67,4.13,9.37,6.76l.78.77s.07.02.09,0c3.49-3.59,7.25-6.99,11.16-10.19,10.22-8.33,21.52-15.91,34.28-19.61.02,0,.04,0,.05,0,14.96,8.05,21.21,23.78,23.77,34.12-.89-2-1.82-3.98-2.83-5.95-2.15-4.22-5.26-7.94-9.18-10.73-2.51-1.79-5.57-3.39-9.02-4.03,0,0,0,0-.01,0-.4.03-31.94,2.73-31.94,39.01Z"/>
          <path class="cls-1" d="m34.11,82.11c1.03.54,2.07,1.04,3.12,1.53,4.89,2.26,9.76,4.06,12.48,6.89.19.21.37.41.55.62.34.43.64.88.88,1.36.04.08.08.14.14.21.16.17.38.26.6.26.3,0,.59-.16.74-.46,3.39-6.71,17.24-7.95,24.43-15.79,1.03-1.12,1.91-2.37,2.62-3.79,3.52-7.09,3.08-13.2,2.02-17.2,0,0-.02.02-.03.02l-3.02,1.35h0s-.37,1.54-.37,1.54c0,0,0,0,0,0-.06.13-5.2,11.89-12.91,11.89s-9.47-3.17-9.47-3.17l.33-.23-.25.11s.95-4.79,11.41-14.36c0,0,0,0,0,0,.02-.03.44-.6.94-1.71.77-1.68,1.75-4.6,1.89-8.76,0-.03-.01-.05-.04-.06-.31-.17-.63-.33-.94-.48-1.4-.68-2.92-1-4.44-.98-.38,0-.75.04-1.13.09-1.12.15-2.23.51-3.25,1.06-.21.11-.42.24-.62.36-.07.04-.14.08-.21.12-.83.51-1.56,1.15-2.18,1.9-.21.24-.4.5-.59.77l-4.16,5.98-.27.38c-.11.15-.27.23-.43.23-.17,0-.33-.08-.44-.23l-.27-.38-3.29-4.63-1.18-1.67c-.11-.16-.24-.3-.36-.46-.85-1.07-1.9-1.98-3.12-2.59-.04-.02-.08-.05-.12-.07-1-.49-2.05-.79-3.13-.9-.36-.05-.71-.06-1.08-.06-1.44,0-2.89.33-4.22.96-.41.19-.8.39-1.2.6-.02.01-.04.04-.03.06.14,4.16,1.12,7.08,1.88,8.76.51,1.11.93,1.68.95,1.71,0,0,0,0,0,0,10.46,9.57,11.41,14.36,11.41,14.36l-.25-.11.33.23s-1.72,3.17-9.47,3.17-12.85-11.76-12.91-11.89c0,0,0,0,0,0l-.37-1.51s-.02-.04-.04-.04l-2.98-1.33s-.02-.02-.03-.02c-1.06,4-1.5,10.11,2.02,17.2,2.11,4.26,5.9,7.01,10.02,9.18Zm12.92-6.96c1.81-1.08,3.31-3.53,4.47-5.26.28-.41.89-.4,1.15.03,1.09,1.73,2.6,3.97,4.19,4.91.31.19.43.58.26.9l-4.48,8.84c-.25.5-.96.51-1.23.02l-4.64-8.51c-.18-.33-.06-.73.26-.92Z"/>
          <path class="cls-1" d="m40.06,159.71c-6.97-12-12-25.09-15.52-38.5-.29-1.3-1.08-4.49-1.4-5.85-.61-2.61-1.07-5.26-1.73-7.9l-.45.04c-.12,4.62.16,9.66.68,14.27,1.17,8.8,3.41,17.59,6.96,25.74,12.49,27.29,37.48,48.84,66.55,56.48,0,0,.11-.44.11-.44-5.11-1.59-10.04-3.81-14.78-6.28-16.47-8.69-30.76-21.64-40.4-37.55Z"/>
        </g>
      </g>
    </g>
  </g>
</svg>